#!OML:ASF I:\Actors\actors\Patient Classification 2\Patient 1\Session 1\actor1.ASF
:FULLY-SPECIFIED
:DEGREES
742
root -0.532643 18.6383 5.8013 -1.08876 -3.90088 -0.382156
lowerback 5.19533 1.59336 -1.66593
upperback -2.45291 2.02883 0.463284
thorax -5.53668 1.07288 1.21331
lowerneck -10.6509 -2.12343 -1.65323
upperneck 18.7019 -2.72965 0.538192
head 7.53537 -1.37242 0.188815
rclavicle 3.04203e-014 -2.11954e-014
rhumerus -51.6366 -9.43684 -80.0498
rradius 52.0238
rwrist 4.62105
rhand -10.3864 321.22
rfingers 7.12502
rthumb 15.6116 -68.1701
lclavicle 3.04203e-014 -2.11954e-014
lhumerus -41.8304 0.345876 87.7845
lradius 50.5363
lwrist 8.40896
lhand -11.2052 -24.9283
lfingers 7.12502
lthumb 14.8228 4.52158
rfemur 9.10164 13.7475 14.8218
rtibia -3.65764e-014
rfoot -21.1861 -17.4362
rtoes -9.44807
lfemur 0.133001 -5.62672 -14.7935
ltibia 20.6903
lfoot -22.7762 13.8104
ltoes -55.6853
743
root -0.529855 18.6383 5.79767 -1.10149 -3.99573 -0.357447
lowerback 5.15948 1.60905 -1.68296
upperback -2.44791 2.05004 0.480938
thorax -5.51307 1.08418 1.24011
lowerneck -10.5864 -2.09691 -1.59373
upperneck 18.7721 -2.69331 0.47449
head 7.5446 -1.35702 0.162017
rclavicle 9.66435e-015 1.19271e-015
rhumerus -51.3377 -9.40904 -79.8866
rradius 51.5727
rwrist 4.83457
rhand -10.4366 321.118
rfingers 7.12502
rthumb 15.5632 -68.2761
lclavicle 9.66435e-015 1.19271e-015
lhumerus -41.736 0.345453 87.8837
lradius 49.9669
lwrist 8.15941
lhand -11.4555 -25.2686
lfingers 7.12502
lthumb 14.5816 4.19879
rfemur 9.079 13.8446 14.7875
rtibia -1.74931e-014
rfoot -21.142 -17.478
rtoes -9.53736
lfemur 0.160566 -5.60042 -14.8431
ltibia 20.6727
lfoot -22.7775 13.8892
ltoes -55.7456
744
root -0.527057 18.6391 5.79501 -1.10859 -4.05982 -0.340628
lowerback 5.0906 1.60115 -1.69162
upperback -2.43659 2.04132 0.506479
thorax -5.46286 1.08034 1.27445
lowerneck -10.4137 -2.07808 -1.5582
upperneck 18.748 -2.66679 0.42418
head 7.50424 -1.34717 0.144341
rclavicle 2.58047e-014 -4.48508e-015
rhumerus -51.072 -9.42271 -79.7028
rradius 51.0784
rwrist 5.10943
rhand -10.4045 320.961
rfingers 7.12502
rthumb 15.5941 -68.4305
lclavicle 2.58047e-014 -4.48508e-015
lhumerus -41.6539 0.528415 87.9199
lradius 49.2405
lwrist 7.8051
lhand -11.732 -25.7906
lfingers 7.12502
lthumb 14.3153 3.69594
rfemur 9.06573 13.9101 14.7623
rtibia -2.54444e-014
rfoot -21.091 -17.5313
rtoes -9.57267
lfemur 0.183615 -5.56275 -14.8784
ltibia 20.6479
lfoot -22.7591 13.9786
ltoes -55.8669
745
root -0.525064 18.6399 5.79215 -1.11976 -4.0811 -0.31633
lowerback 5.0311 1.60123 -1.70882
upperback -2.41426 2.04174 0.516997
thorax -5.40655 1.08088 1.29698
lowerneck -10.3385 -2.07407 -1.55997
upperneck 18.7742 -2.66181 0.42103
head 7.49931 -1.34547 0.144791
rclavicle -1.14798e-014 -2.39784e-015
rhumerus -50.8599 -9.56621 -79.4969
rradius 50.581
rwrist 5.43237
rhand -10.3143 320.788
rfingers 7.12502
rthumb 15.681 -68.5962
lclavicle -1.14798e-014 -2.39784e-015
lhumerus -41.5374 0.727612 87.9483
lradius 48.3324
lwrist 7.38374
lhand -12.0608 -26.5366
lfingers 7.12502
lthumb 13.9984 2.97212
rfemur 9.06574 13.9333 14.7309
rtibia -3.18055e-015
rfoot -21.0745 -17.5525
rtoes -9.73664
lfemur 0.200813 -5.5662 -14.9147
ltibia 20.6259
lfoot -22.7443 14.0083
ltoes -55.8236
746
root -0.523893 18.6403 5.7888 -1.12813 -4.07529 -0.283228
lowerback 4.98066 1.60932 -1.75358
upperback -2.38142 2.05073 0.526427
thorax -5.34578 1.08647 1.33289
lowerneck -10.3924 -2.08431 -1.57109
upperneck 18.854 -2.67416 0.423856
head 7.53549 -1.35166 0.145326
rclavicle -3.10189e-014 -1.68408e-014
rhumerus -50.6708 -9.73617 -79.2789
rradius 50.0251
rwrist 5.70263
rhand -10.3109 320.82
rfingers 7.12502
rthumb 15.6842 -68.5648
lclavicle -3.10189e-014 -1.68408e-014
lhumerus -41.3701 0.959458 87.9955
lradius 47.2872
lwrist 6.92943
lhand -12.546 -27.2594
lfingers 7.12502
lthumb 13.5308 2.28097
rfemur 9.06339 13.9294 14.6891
rtibia 4.77083e-015
rfoot -21.0633 -17.5481
rtoes -9.84578
lfemur 0.199213 -5.5723 -14.9529
ltibia 20.6166
lfoot -22.7225 13.9809
ltoes -55.7425
747
root -0.523442 18.6408 5.78517 -1.12695 -4.06595 -0.278545
lowerback 4.93177 1.60483 -1.78711
upperback -2.34985 2.04506 0.562453
thorax -5.28727 1.08491 1.39147
lowerneck -10.4792 -2.09449 -1.61669
upperneck 18.9472 -2.67835 0.420508
head 7.58235 -1.35687 0.149883
rclavicle -7.49519e-016 1.41137e-014
rhumerus -50.5266 -9.85777 -79.045
rradius 49.419
rwrist 6.01757
rhand -10.3927 320.937
rfingers 7.12502
rthumb 15.6055 -68.4534
lclavicle -7.49519e-016 1.41137e-014
lhumerus -41.2083 1.30292 88.0365
lradius 46.1733
lwrist 6.48355
lhand -13.0804 -27.7721
lfingers 7.12502
lthumb 13.0157 1.80184
rfemur 9.04733 13.9207 14.6784
rtibia -1.74931e-014
rfoot -21.0685 -17.5268
rtoes -9.59658
lfemur 0.186929 -5.56159 -14.9556
ltibia 20.6123
lfoot -22.6818 13.9814
ltoes -55.7949
748
root -0.523592 18.6412 5.78231 -1.12333 -4.04694 -0.294545
lowerback 4.88696 1.59522 -1.77806
upperback -2.33114 2.03456 0.580627
thorax -5.24206 1.07931 1.4078
lowerneck -10.5451 -2.08065 -1.64346
upperneck 19.0522 -2.66199 0.460598
head 7.62948 -1.34697 0.167709
rclavicle -8.39166e-015 1.2424e-016
rhumerus -50.459 -10.098 -78.747
rradius 48.7387
rwrist 6.75046
rhand -9.96263 320.841
rfingers 7.12502
rthumb 16.0196 -68.5167
lclavicle -8.39166e-015 1.2424e-016
lhumerus -41.1028 1.65211 88.0275
lradius 45.0092
lwrist 6.0418
lhand -13.694 -28.1191
lfingers 7.12502
lthumb 12.4241 1.49163
rfemur 9.03685 13.9015 14.6942
rtibia 2.06736e-014
rfoot -21.0921 -17.5156
rtoes -9.36649
lfemur 0.173208 -5.59226 -14.9351
ltibia 20.6137
lfoot -22.6784 13.9871
ltoes -55.7936
749
root -0.523828 18.6411 5.78099 -1.13883 -4.01824 -0.285621
lowerback 4.86959 1.58537 -1.7838
upperback -2.3303 2.02084 0.571385
thorax -5.23059 1.07246 1.40324
lowerneck -10.5253 -2.05162 -1.62443
upperneck 19.0971 -2.63689 0.513646
head 7.64086 -1.32873 0.184353
rclavicle 2.06115e-014 1.41013e-015
rhumerus -50.4547 -10.3662 -78.4747
rradius 48.028
rwrist 7.53314
rhand -9.42739 320.688
rfingers 7.12502
rthumb 16.535 -68.628
lclavicle 2.06115e-014 1.41013e-015
lhumerus -41.0805 2.12181 87.9118
lradius 43.7689
lwrist 5.43822
lhand -14.3466 -28.6956
lfingers 7.12502
lthumb 11.7949 0.952219
rfemur 9.05847 13.8743 14.6907
rtibia -4.13472e-014
rfoot -21.1132 -17.5337
rtoes -9.34563
lfemur 0.174478 -5.61966 -14.9415
ltibia 20.6256
lfoot -22.7202 13.9466
ltoes -55.7101
750
root -0.523657 18.6409 5.78061 -1.15003 -3.9757 -0.272669
lowerback 4.85953 1.5721 -1.80302
upperback -2.34095 2.00188 0.570759
thorax -5.23594 1.06385 1.41529
lowerneck -10.4727 -2.03865 -1.59896
upperneck 19.1157 -2.62734 0.526085
head 7.63719 -1.32137 0.185618
rclavicle -2.47044e-014 2.24565e-014
rhumerus -50.4824 -10.4969 -78.358
rradius 47.3721
rwrist 7.74834
rhand -9.8226 320.819
rfingers 7.12502
rthumb 16.1545 -68.5279
lclavicle -2.47044e-014 2.24565e-014
lhumerus -41.1184 2.79718 87.7117
lradius 42.515
lwrist 4.60948
lhand -14.953 -29.4967
lfingers 7.12502
lthumb 11.2101 0.183815
rfemur 9.0809 13.833 14.6795
rtibia 0
rfoot -21.1243 -17.5316
rtoes -9.3711
lfemur 0.164506 -5.59915 -14.9504
ltibia 20.6401
lfoot -22.6976 13.9192
ltoes -55.7392
751
root -0.523725 18.6412 5.77998 -1.13659 -3.93969 -0.280813
lowerback 4.84068 1.56065 -1.81021
upperback -2.36285 1.98672 0.578582
thorax -5.24807 1.05703 1.42905
lowerneck -10.4296 -2.04089 -1.57228
upperneck 19.1467 -2.63615 0.524479
head 7.63931 -1.32399 0.180127
rclavicle -1.32343e-014 2.21148e-015
rhumerus -50.5357 -10.6591 -78.2349
rradius 46.6797
rwrist 7.97746
rhand -10.3527 320.974
rfingers 7.12502
rthumb 15.644 -68.4134
lclavicle -1.32343e-014 2.21148e-015
lhumerus -41.2029 3.52847 87.4831
lradius 41.3648
lwrist 3.7577
lhand -15.5372 -29.9368
lfingers 7.12502
lthumb 10.6466 -0.226475
rfemur 9.07243 13.7957 14.6847
rtibia 4.77083e-015
rfoot -21.1182 -17.5068
rtoes -9.30891
lfemur 0.110969 -5.58583 -14.9321
ltibia 20.692
lfoot -22.6854 13.8734
ltoes -55.7353
752
root -0.524213 18.6424 5.77879 -1.11037 -3.9204 -0.31071
lowerback 4.81399 1.55156 -1.78527
upperback -2.38729 1.97628 0.569835
thorax -5.25676 1.05111 1.40734
lowerneck -10.4028 -2.0406 -1.49612
upperneck 19.1904 -2.65006 0.520449
head 7.64783 -1.32565 0.164883
rclavicle 1.77906e-014 1.49562e-014
rhumerus -50.5963 -10.926 -78.064
rradius 45.9088
rwrist 8.57562
rhand -10.6763 321.202
rfingers 7.12502
rthumb 15.3323 -68.2098
lclavicle 1.77906e-014 1.49562e-014
lhumerus -41.3343 4.23654 87.2015
lradius 40.3381
lwrist 3.09351
lhand -15.9904 -29.9519
lfingers 7.12502
lthumb 10.2094 -0.219627
rfemur 9.04084 13.7737 14.7132
rtibia 3.18055e-015
rfoot -21.0907 -17.5127
rtoes -9.35044
lfemur -0.00650137 -5.60125 -14.8895
ltibia 20.8564
lfoot -22.7532 13.8086
ltoes -55.6715
